<?xml version="1.0" encoding="utf-8"?>
<svg width="655px" height="128px" viewBox="0 0 655 128" version="1.1" xmlns="http://www.w3.org/2000/svg">
<symbol id="full">
  <path d="M 44.796 6.086 C 30.626 9.442 20.202 17.766 13.47 31.103 C 9.83 38.313 8.079 49.581 9.221 58.444 C 11.417 75.478 20.825 88.682 35.754 95.678 C 50.072 102.386 68.539 100.556 81.301 91.163 C 83.904 89.245 84.612 88.399 85.087 86.635 C 85.473 85.201 85.615 79.454 85.505 69.719 C 85.319 53.274 85.222 52.81 81.652 51.318 C 79.125 50.262 57.048 50.253 54.526 51.307 C 49.906 53.237 49.906 58.903 54.526 60.834 C 55.738 61.34 58.521 61.563 63.635 61.563 C 70.757 61.563 71.042 61.605 72.284 62.847 L 73.568 64.131 L 73.568 72.82 C 73.568 77.815 73.337 81.941 73.026 82.523 C 72.344 83.798 68.632 85.69 63.89 87.182 C 59.238 88.646 51.349 88.798 46.366 87.52 C 37.258 85.185 28.742 78.115 24.587 69.442 C 21.767 63.552 21.156 61.051 20.874 54.22 C 20.643 48.659 20.771 46.989 21.715 43.235 C 23.766 35.072 27.89 28.423 33.949 23.512 C 40.048 18.569 46.875 16.097 54.474 16.079 C 62.3 16.061 68.282 17.974 74.098 22.354 C 77.961 25.265 79.14 25.681 81.517 24.972 C 84.015 24.229 85.6 22.205 85.6 19.76 C 85.6 17.274 84.683 16.047 80.702 13.206 C 76.075 9.905 69.298 6.826 64.566 5.876 C 59.164 4.791 49.847 4.89 44.796 6.086 M 365.991 6.086 C 354.099 8.903 344.719 15.374 337.904 25.468 C 327.969 40.18 327.493 62.146 336.772 77.592 C 343.219 88.323 354.375 96.307 366.415 98.807 C 370.486 99.653 372.668 99.803 377.5 99.571 C 385.04 99.21 388.931 98.234 395.547 95.047 C 404.843 90.567 407.414 87.776 406.244 83.434 C 405.557 80.883 403.109 79.166 400.778 79.601 C 399.915 79.764 397.326 81.038 395.024 82.434 C 386.757 87.447 379.671 89.202 371.723 88.205 C 363.82 87.213 358.61 84.597 352.604 78.603 C 349.218 75.225 347.891 73.417 345.976 69.573 C 342.684 62.962 341.721 58.317 342.051 50.635 C 342.253 45.94 342.63 43.613 343.714 40.376 C 347.684 28.53 356.296 20.227 367.927 17.035 C 371.338 16.1 372.908 15.962 377.5 16.198 C 384.256 16.545 388.726 17.882 393.173 20.883 C 400.89 26.092 401.938 26.323 405.238 23.546 C 406.548 22.443 406.794 21.857 406.794 19.835 C 406.794 17.669 406.568 17.223 404.499 15.304 C 401.955 12.943 396.425 9.525 392.409 7.83 C 385.775 5.03 373.791 4.24 365.991 6.086 M 436.206 7.161 C 435.265 7.735 434.264 8.809 433.983 9.548 C 433.667 10.378 433.473 26.916 433.473 53.018 L 433.473 95.147 L 435.252 96.925 C 436.733 98.407 437.414 98.705 439.32 98.705 C 441.774 98.705 443.528 97.78 444.585 95.932 C 445.068 95.087 445.313 89.5 445.505 74.903 L 445.767 55.024 L 447.195 52.594 C 448.956 49.599 451.174 47.681 454.921 45.917 C 457.472 44.715 458.45 44.561 463.553 44.561 C 468.346 44.561 469.715 44.751 471.753 45.692 C 474.885 47.14 478.823 50.768 479.859 53.16 C 481.934 57.953 482.111 59.835 482.119 77.257 C 482.127 93.32 482.185 94.353 483.172 95.971 C 484.823 98.68 488.96 99.615 491.478 97.852 C 493.99 96.092 494.156 94.756 494.146 76.358 C 494.136 57.511 493.804 54.512 491.098 48.792 C 486.654 39.4 478.426 34.065 467.475 33.473 C 459.724 33.053 452.254 35.344 447.359 39.642 L 445.505 41.27 L 445.505 26.255 C 445.505 9.371 445.294 8.197 442.032 6.833 C 439.676 5.849 438.225 5.931 436.206 7.161 M 615.877 14.699 C 615.128 15.394 614.377 16.512 614.21 17.185 C 614.042 17.856 613.975 32.766 614.058 50.316 L 614.21 82.226 L 615.93 85.858 C 619.109 92.572 623.282 96.31 629.366 97.894 C 636.92 99.862 642.712 98.15 643.546 93.702 C 643.929 91.66 642.577 88.484 640.952 87.609 C 640.342 87.28 637.936 86.859 635.606 86.672 C 630.526 86.265 628.734 85.209 626.941 81.568 C 625.752 79.154 625.715 78.647 625.555 62.74 L 625.39 46.392 L 630.839 46.392 C 637.191 46.392 639.319 45.803 640.382 43.746 C 641.488 41.609 641.333 39.862 639.89 38.183 C 638.664 36.754 638.457 36.708 632.174 36.454 L 625.719 36.192 L 625.457 26.462 C 625.189 16.483 625.069 15.915 622.842 14.107 C 622.41 13.756 620.973 13.462 619.649 13.453 C 617.813 13.44 616.917 13.736 615.877 14.699 M 179.321 33.866 C 177.783 34.141 174.962 34.991 173.051 35.756 C 163.894 39.419 157.867 45.779 154.792 55.024 C 153.541 58.787 153.4 59.975 153.402 66.794 C 153.404 73.651 153.536 74.748 154.775 78.217 C 156.63 83.403 159.027 87.257 162.638 90.854 C 168.062 96.26 174.676 98.846 183.161 98.882 C 192.672 98.922 199.547 95.28 205.756 86.912 L 206.905 85.365 L 206.929 87.719 C 206.986 93.045 205.887 99.482 204.365 102.745 C 201.082 109.782 194.855 114.207 187.449 114.768 C 179.695 115.354 173.245 113.096 168.072 107.986 C 166.389 106.324 164.58 104.734 164.051 104.451 C 160.756 102.686 156.271 105.394 156.238 109.169 C 156.208 112.419 162.124 118.406 168.514 121.591 C 174.434 124.542 177.192 125.109 185.515 125.087 C 192.369 125.068 193.441 124.937 196.627 123.722 C 207.262 119.668 214.211 111.849 217.23 100.536 C 218.095 97.297 218.207 94.791 218.208 78.826 C 218.21 58.573 218.04 57.291 214.428 50.419 C 209.026 40.139 199.188 34.075 187.096 33.573 C 184.356 33.459 180.857 33.591 179.321 33.866 M 267.527 34.113 C 258.414 35.927 250.825 41.231 246.043 49.13 C 242.698 54.655 241.746 58.597 241.778 66.794 C 241.801 73.096 241.959 74.301 243.237 77.984 C 245.185 83.596 246.878 86.329 250.895 90.34 C 254.809 94.249 260.056 97.239 265.083 98.425 C 270.042 99.593 300.99 99.589 303.454 98.42 C 306.558 96.946 306.619 96.558 306.594 78.35 C 306.568 59.636 306.356 58.155 302.656 50.76 C 296.288 38.035 281.955 31.241 267.527 34.113 M 546.466 33.874 C 533.882 36.088 523.647 45.379 520.499 57.443 C 519.319 61.964 519.349 70.632 520.56 75.426 C 523.497 87.046 531.824 95.567 543.045 98.431 C 547.453 99.557 578.567 99.599 581.236 98.485 C 584.528 97.108 584.654 96.387 584.654 78.886 C 584.654 60.791 584.278 57.985 580.929 51.159 C 577.108 43.366 569.685 37.186 561.114 34.66 C 557.51 33.597 550.25 33.208 546.466 33.874 M 116.725 34.304 C 116.15 34.555 115.208 35.284 114.632 35.923 C 113.617 37.051 113.582 37.928 113.443 65.542 C 113.317 90.347 113.402 94.198 114.106 95.558 C 115.946 99.116 121.187 99.693 123.918 96.636 L 125.357 95.026 L 125.357 66.271 L 125.357 37.516 L 123.902 35.887 C 122.775 34.626 121.918 34.212 120.108 34.053 C 118.823 33.94 117.301 34.053 116.725 34.304 M 181.853 44.37 C 171.002 46.148 163.969 55.795 164.744 67.84 C 165.246 75.661 168.35 81.407 174.067 85.102 C 177.973 87.625 181.499 88.448 187.152 88.149 C 192.406 87.872 196.266 86.306 199.859 82.994 C 204.513 78.703 206.479 73.796 206.485 66.456 C 206.491 56.77 202.306 49.559 194.639 46.049 C 192.226 44.945 186.803 43.669 185.253 43.841 C 184.966 43.873 183.436 44.111 181.853 44.37 M 270.26 44.365 C 262.317 45.684 255.543 52.407 253.523 60.981 C 252.591 64.934 253.085 71.604 254.565 75.043 C 258.533 84.267 265.602 88.675 275.585 88.148 C 280.929 87.866 284.86 86.225 288.207 82.878 C 292.79 78.295 294.834 73.172 294.834 66.271 C 294.834 60.048 293.106 55.132 289.348 50.665 C 285.315 45.872 277.242 43.208 270.26 44.365 M 548.491 44.309 C 547.159 44.534 544.964 45.208 543.611 45.806 C 527.292 53.025 526.739 78.408 542.729 86.28 C 546.02 87.9 546.468 87.981 552.21 87.981 C 558.066 87.981 558.329 87.93 561.499 86.212 C 567.71 82.843 571.649 77.142 572.77 69.897 C 575.118 54.729 562.919 41.873 548.491 44.309" stroke="none" fill="#3dbdbb" fill-rule="evenodd"/>
</symbol>
</svg>